<svg xmlns="http://www.w3.org/2000/svg" viewBox="0 0 256 256" role="img" aria-label="Arroz">
<defs>
  <linearGradient id="arroz-body" x1="0" y1="0" x2="1" y2="1">
    <stop offset="0" stop-color="#f2e8d4"/>
    <stop offset="0.58" stop-color="#efe3ca"/>
    <stop offset="1" stop-color="#aca391"/>
  </linearGradient>
  <linearGradient id="arroz-accent" x1="0" y1="0" x2="1" y2="1">
    <stop offset="0" stop-color="#9dd88a"/>
    <stop offset="1" stop-color="#8ad174"/>
  </linearGradient>
  <radialGradient id="arroz-shine" cx="32%" cy="26%" r="58%">
    <stop offset="0" stop-color="#fff" stop-opacity="0.9"/>
    <stop offset="0.5" stop-color="#fff" stop-opacity="0.25"/>
    <stop offset="1" stop-color="#fff" stop-opacity="0"/>
  </radialGradient>
  <filter id="arroz-shadow" x="-30%" y="-30%" width="160%" height="180%">
    <feDropShadow dx="0" dy="8" stdDeviation="6" flood-color="#09120d" flood-opacity="0.28"/>
  </filter>
</defs>
<ellipse cx="128" cy="223" rx="42" ry="10" fill="rgba(0,0,0,.14)"/>
<g filter="url(#arroz-shadow)"><path d="M128 214c0-85 0-118 2-167" stroke="#639654" stroke-width="8" stroke-linecap="round"/><path d="M126 107c-33-12-49-36-44-66 27 4 46 22 56 60" fill="url(#arroz-accent)" stroke="#639654" stroke-width="4"/><path d="M134 124c36-8 54-32 49-62-30 3-49 21-59 58" fill="#9fd98d" stroke="#639654" stroke-width="4"/><path d="M108 95c-18 26-13 54 10 73 18-25 13-53-10-73Z" fill="url(#arroz-body)" stroke="#aca391" stroke-width="4"/><path d="M142 113c-18 26-13 54 10 73 18-25 13-53-10-73Z" fill="url(#arroz-body)" stroke="#aca391" stroke-width="4"/><path d="M109 154c-18 26-13 54 10 73 18-25 13-53-10-73Z" fill="url(#arroz-body)" stroke="#aca391" stroke-width="4"/></g>
</svg>