<svg xmlns="http://www.w3.org/2000/svg" viewBox="0 0 256 256" role="img" aria-label="Aveia">
<defs>
  <linearGradient id="aveia-body" x1="0" y1="0" x2="1" y2="1">
    <stop offset="0" stop-color="#decb98"/>
    <stop offset="0.58" stop-color="#d7bf82"/>
    <stop offset="1" stop-color="#9b8a5e"/>
  </linearGradient>
  <linearGradient id="aveia-accent" x1="0" y1="0" x2="1" y2="1">
    <stop offset="0" stop-color="#a8d88b"/>
    <stop offset="1" stop-color="#97d075"/>
  </linearGradient>
  <radialGradient id="aveia-shine" cx="32%" cy="26%" r="58%">
    <stop offset="0" stop-color="#fff" stop-opacity="0.9"/>
    <stop offset="0.5" stop-color="#fff" stop-opacity="0.25"/>
    <stop offset="1" stop-color="#fff" stop-opacity="0"/>
  </radialGradient>
  <filter id="aveia-shadow" x="-30%" y="-30%" width="160%" height="180%">
    <feDropShadow dx="0" dy="8" stdDeviation="6" flood-color="#09120d" flood-opacity="0.28"/>
  </filter>
</defs>
<ellipse cx="128" cy="223" rx="42" ry="10" fill="rgba(0,0,0,.14)"/>
<g filter="url(#aveia-shadow)"><path d="M128 214c0-85 0-118 2-167" stroke="#6d9654" stroke-width="8" stroke-linecap="round"/><path d="M126 107c-33-12-49-36-44-66 27 4 46 22 56 60" fill="url(#aveia-accent)" stroke="#6d9654" stroke-width="4"/><path d="M134 124c36-8 54-32 49-62-30 3-49 21-59 58" fill="#aad88e" stroke="#6d9654" stroke-width="4"/><ellipse cx="113" cy="87" rx="9" ry="21" transform="rotate(-18 113 87)" fill="url(#aveia-body)" stroke="#9b8a5e" stroke-width="3"/><ellipse cx="133" cy="104" rx="9" ry="21" transform="rotate(0 133 104)" fill="url(#aveia-body)" stroke="#9b8a5e" stroke-width="3"/><ellipse cx="111" cy="139" rx="9" ry="21" transform="rotate(-15 111 139)" fill="url(#aveia-body)" stroke="#9b8a5e" stroke-width="3"/><ellipse cx="141" cy="146" rx="9" ry="21" transform="rotate(18 141 146)" fill="url(#aveia-body)" stroke="#9b8a5e" stroke-width="3"/><ellipse cx="126" cy="68" rx="9" ry="21" transform="rotate(8 126 68)" fill="url(#aveia-body)" stroke="#9b8a5e" stroke-width="3"/><ellipse cx="100" cy="113" rx="7" ry="16" transform="rotate(-24 100 113)" fill="#dbc58e" stroke="#9b8a5e" stroke-width="3"/><ellipse cx="153" cy="130" rx="7" ry="16" transform="rotate(21 153 130)" fill="#dbc58e" stroke="#9b8a5e" stroke-width="3"/><ellipse cx="118" cy="163" rx="7" ry="16" transform="rotate(-18 118 163)" fill="#dbc58e" stroke="#9b8a5e" stroke-width="3"/></g>
</svg>