<svg xmlns="http://www.w3.org/2000/svg" viewBox="0 0 512 512" role="img" aria-label="Cenoura">
  <defs>
    <linearGradient id="cenoura-body" x1="0" x2="1" y1="0" y2="1">
      <stop offset="0" stop-color="#ffa75a"/>
      <stop offset="0.55" stop-color="#ff8f2c"/>
      <stop offset="1" stop-color="#b7661f"/>
    </linearGradient>
    <linearGradient id="cenoura-accent" x1="0" x2="0.9" y1="0" y2="1">
      <stop offset="0" stop-color="#c9ff8d"/>
      <stop offset="1" stop-color="#bcff71"/>
    </linearGradient>
    <radialGradient id="cenoura-shine" cx="30%" cy="22%" r="70%">
      <stop offset="0" stop-color="#ffffff" stop-opacity="0.92"/>
      <stop offset="0.42" stop-color="#ffffff" stop-opacity="0.24"/>
      <stop offset="1" stop-color="#ffffff" stop-opacity="0"/>
    </radialGradient>
    <radialGradient id="cenoura-glow" cx="50%" cy="50%" r="55%">
      <stop offset="0" stop-color="#ffa351" stop-opacity="0.48"/>
      <stop offset="1" stop-color="#c2ff7f" stop-opacity="0"/>
    </radialGradient>
    <filter id="cenoura-blur" x="-40%" y="-40%" width="180%" height="180%">
      <feGaussianBlur stdDeviation="18"/>
    </filter>
    <filter id="cenoura-shadow" x="-25%" y="-25%" width="160%" height="170%">
      <feDropShadow dx="0" dy="16" stdDeviation="12" flood-color="#05150d" flood-opacity="0.32"/>
    </filter>
  </defs>
  <ellipse cx="256" cy="272" rx="168" ry="152" fill="url(#cenoura-glow)" filter="url(#cenoura-blur)"/>
  <ellipse cx="256" cy="438" rx="116" ry="26" fill="rgba(0,0,0,.18)"/>
  
  <g filter="url(#cenoura-shadow)">
    <path d="M245 210c-82-18-131-76-109-134 70 3 115 38 135 114-7 11-15 16-26 20Z" fill="url(#cenoura-accent)" stroke="#87b751" stroke-width="14" stroke-linejoin="round"/>
    <path d="M272 213c82-14 131-71 115-130-72 2-120 35-142 110 8 11 16 17 27 20Z" fill="#ccff93" stroke="#87b751" stroke-width="14" stroke-linejoin="round"/>
    <path d="M256 222c-44-57-85-102-99-148M261 223c41-61 77-106 97-146" fill="none" stroke="#87b751" stroke-width="10" stroke-linecap="round" opacity=".55"/>
  </g>
  <g filter="url(#cenoura-shadow)">
    <path d="M256 224c-54 39-95 88-77 154l60 104c9 15 25 15 34 0l60-104c18-66-23-115-77-154Z" fill="url(#cenoura-body)" stroke="#b7661f" stroke-width="16"/>
    <path d="M215 311h78M224 362h62M236 414h40" stroke="#935219" stroke-width="8" stroke-linecap="round" opacity=".46"/>
  </g>
</svg>