<svg xmlns="http://www.w3.org/2000/svg" viewBox="0 0 256 256" role="img" aria-label="Couve-flor">
<defs>
  <linearGradient id="couve-flor-body" x1="0" y1="0" x2="1" y2="1">
    <stop offset="0" stop-color="#f3f1ea"/>
    <stop offset="0.58" stop-color="#f0eee5"/>
    <stop offset="1" stop-color="#adaba5"/>
  </linearGradient>
  <linearGradient id="couve-flor-accent" x1="0" y1="0" x2="1" y2="1">
    <stop offset="0" stop-color="#a2d781"/>
    <stop offset="1" stop-color="#90cf69"/>
  </linearGradient>
  <radialGradient id="couve-flor-shine" cx="32%" cy="26%" r="58%">
    <stop offset="0" stop-color="#fff" stop-opacity="0.9"/>
    <stop offset="0.5" stop-color="#fff" stop-opacity="0.25"/>
    <stop offset="1" stop-color="#fff" stop-opacity="0"/>
  </radialGradient>
  <filter id="couve-flor-shadow" x="-30%" y="-30%" width="160%" height="180%">
    <feDropShadow dx="0" dy="8" stdDeviation="6" flood-color="#09120d" flood-opacity="0.28"/>
  </filter>
</defs>
<ellipse cx="128" cy="223" rx="42" ry="10" fill="rgba(0,0,0,.14)"/>

<g filter="url(#couve-flor-shadow)">
  <path d="M128 211v-77" stroke="#76aa56" stroke-width="10" stroke-linecap="round"/>
  <path d="M103 208c-16-39-12-67 11-88 12 4 20 12 23 24-4 22-13 45-34 64Z" fill="url(#couve-flor-accent)" stroke="#68954c" stroke-width="5"/>
  <path d="M153 208c16-39 12-67-11-88-12 4-20 12-23 24 4 22 13 45 34 64Z" fill="#a4d884" stroke="#68954c" stroke-width="5"/>
  <circle cx="95" cy="120" r="24" fill="#f6f4eb" stroke="#adaba5" stroke-width="5"/>
  <circle cx="128" cy="102" r="30" fill="url(#couve-flor-body)" stroke="#adaba5" stroke-width="6"/>
  <circle cx="161" cy="120" r="24" fill="#fbfaf3" stroke="#adaba5" stroke-width="5"/>
  <circle cx="118" cy="133" r="22" fill="#f2f0e7" stroke="#adaba5" stroke-width="4"/>
  <circle cx="138" cy="133" r="22" fill="#fbfaf3" stroke="#adaba5" stroke-width="4"/>
</g>
</svg>