<svg xmlns="http://www.w3.org/2000/svg" viewBox="0 0 512 512" role="img" aria-label="Framboesa">
  <defs>
    <linearGradient id="framboesa-body" x1="0" x2="1" y1="0" y2="1">
      <stop offset="0" stop-color="#e16692"/>
      <stop offset="0.55" stop-color="#d93c74"/>
      <stop offset="1" stop-color="#9c2b53"/>
    </linearGradient>
    <linearGradient id="framboesa-accent" x1="0" x2="0.9" y1="0" y2="1">
      <stop offset="0" stop-color="#a9e386"/>
      <stop offset="1" stop-color="#94dd68"/>
    </linearGradient>
    <radialGradient id="framboesa-shine" cx="30%" cy="22%" r="70%">
      <stop offset="0" stop-color="#ffffff" stop-opacity="0.92"/>
      <stop offset="0.42" stop-color="#ffffff" stop-opacity="0.24"/>
      <stop offset="1" stop-color="#ffffff" stop-opacity="0"/>
    </radialGradient>
    <radialGradient id="framboesa-glow" cx="50%" cy="50%" r="55%">
      <stop offset="0" stop-color="#df5f8d" stop-opacity="0.48"/>
      <stop offset="1" stop-color="#9ee077" stop-opacity="0"/>
    </radialGradient>
    <filter id="framboesa-blur" x="-40%" y="-40%" width="180%" height="180%">
      <feGaussianBlur stdDeviation="18"/>
    </filter>
    <filter id="framboesa-shadow" x="-25%" y="-25%" width="160%" height="170%">
      <feDropShadow dx="0" dy="16" stdDeviation="12" flood-color="#05150d" flood-opacity="0.32"/>
    </filter>
  </defs>
  <ellipse cx="256" cy="272" rx="168" ry="152" fill="url(#framboesa-glow)" filter="url(#framboesa-blur)"/>
  <ellipse cx="256" cy="438" rx="116" ry="26" fill="rgba(0,0,0,.18)"/>
  
  <g filter="url(#framboesa-shadow)">
    <path d="M245 210c-82-18-131-76-109-134 70 3 115 38 135 114-7 11-15 16-26 20Z" fill="url(#framboesa-accent)" stroke="#6a9f4a" stroke-width="14" stroke-linejoin="round"/>
    <path d="M272 213c82-14 131-71 115-130-72 2-120 35-142 110 8 11 16 17 27 20Z" fill="#ade58c" stroke="#6a9f4a" stroke-width="14" stroke-linejoin="round"/>
    <path d="M256 222c-44-57-85-102-99-148M261 223c41-61 77-106 97-146" fill="none" stroke="#6a9f4a" stroke-width="10" stroke-linecap="round" opacity=".55"/>
  </g><g filter="url(#framboesa-shadow)"><circle cx="205" cy="255" r="48" fill="url(#framboesa-body)" stroke="#9c2b53" stroke-width="12"/><circle cx="280" cy="250" r="48" fill="#dc4f81" stroke="#9c2b53" stroke-width="12"/><circle cx="166" cy="321" r="48" fill="url(#framboesa-body)" stroke="#9c2b53" stroke-width="12"/><circle cx="256" cy="330" r="55" fill="#dc4f81" stroke="#9c2b53" stroke-width="12"/><circle cx="347" cy="319" r="48" fill="url(#framboesa-body)" stroke="#9c2b53" stroke-width="12"/><circle cx="205" cy="393" r="48" fill="#dc4f81" stroke="#9c2b53" stroke-width="12"/><circle cx="299" cy="392" r="48" fill="url(#framboesa-body)" stroke="#9c2b53" stroke-width="12"/></g>
</svg>