<svg xmlns="http://www.w3.org/2000/svg" viewBox="0 0 512 512" role="img" aria-label="Mandioca">
  <defs>
    <linearGradient id="mandioca-body" x1="0" x2="1" y1="0" y2="1">
      <stop offset="0" stop-color="#d0b291"/>
      <stop offset="0.55" stop-color="#c49d73"/>
      <stop offset="1" stop-color="#8d7152"/>
    </linearGradient>
    <linearGradient id="mandioca-accent" x1="0" x2="0.9" y1="0" y2="1">
      <stop offset="0" stop-color="#b2dc88"/>
      <stop offset="1" stop-color="#9fd46b"/>
    </linearGradient>
    <radialGradient id="mandioca-shine" cx="30%" cy="22%" r="70%">
      <stop offset="0" stop-color="#ffffff" stop-opacity="0.92"/>
      <stop offset="0.42" stop-color="#ffffff" stop-opacity="0.24"/>
      <stop offset="1" stop-color="#ffffff" stop-opacity="0"/>
    </radialGradient>
    <radialGradient id="mandioca-glow" cx="50%" cy="50%" r="55%">
      <stop offset="0" stop-color="#ceae8c" stop-opacity="0.48"/>
      <stop offset="1" stop-color="#a8d879" stop-opacity="0"/>
    </radialGradient>
    <filter id="mandioca-blur" x="-40%" y="-40%" width="180%" height="180%">
      <feGaussianBlur stdDeviation="18"/>
    </filter>
    <filter id="mandioca-shadow" x="-25%" y="-25%" width="160%" height="170%">
      <feDropShadow dx="0" dy="16" stdDeviation="12" flood-color="#05150d" flood-opacity="0.32"/>
    </filter>
  </defs>
  <ellipse cx="256" cy="272" rx="168" ry="152" fill="url(#mandioca-glow)" filter="url(#mandioca-blur)"/>
  <ellipse cx="256" cy="438" rx="116" ry="26" fill="rgba(0,0,0,.18)"/>
  
  <g filter="url(#mandioca-shadow)">
    <path d="M245 210c-82-18-131-76-109-134 70 3 115 38 135 114-7 11-15 16-26 20Z" fill="url(#mandioca-accent)" stroke="#72984d" stroke-width="14" stroke-linejoin="round"/>
    <path d="M272 213c82-14 131-71 115-130-72 2-120 35-142 110 8 11 16 17 27 20Z" fill="#b6de8e" stroke="#72984d" stroke-width="14" stroke-linejoin="round"/>
    <path d="M256 222c-44-57-85-102-99-148M261 223c41-61 77-106 97-146" fill="none" stroke="#72984d" stroke-width="10" stroke-linecap="round" opacity=".55"/>
  </g>
  <g filter="url(#mandioca-shadow)">
    <path d="M164 336c8-83 93-123 166-100 77 24 113 98 77 164-41 76-155 107-225 44-33-30-37-69-18-108Z" fill="url(#mandioca-body)" stroke="#8d7152" stroke-width="16"/>
    <circle cx="214" cy="314" r="11" fill="#796147" opacity=".34"/><circle cx="307" cy="380" r="10" fill="#796147" opacity=".34"/><circle cx="208" cy="409" r="8" fill="#796147" opacity=".34"/>
    
    
  </g>
</svg>