<svg xmlns="http://www.w3.org/2000/svg" viewBox="0 0 256 256" role="img" aria-label="Manga">
<defs>
  <linearGradient id="manga-body" x1="0" y1="0" x2="1" y2="1">
    <stop offset="0" stop-color="#ffcb61"/>
    <stop offset="0.58" stop-color="#ffbf3e"/>
    <stop offset="1" stop-color="#b88a2d"/>
  </linearGradient>
  <linearGradient id="manga-accent" x1="0" y1="0" x2="1" y2="1">
    <stop offset="0" stop-color="#ed795e"/>
    <stop offset="1" stop-color="#e9603f"/>
  </linearGradient>
  <radialGradient id="manga-shine" cx="32%" cy="26%" r="58%">
    <stop offset="0" stop-color="#fff" stop-opacity="0.9"/>
    <stop offset="0.5" stop-color="#fff" stop-opacity="0.25"/>
    <stop offset="1" stop-color="#fff" stop-opacity="0"/>
  </radialGradient>
  <filter id="manga-shadow" x="-30%" y="-30%" width="160%" height="180%">
    <feDropShadow dx="0" dy="8" stdDeviation="6" flood-color="#09120d" flood-opacity="0.28"/>
  </filter>
</defs>
<ellipse cx="128" cy="223" rx="42" ry="10" fill="rgba(0,0,0,.14)"/>
<g filter="url(#manga-shadow)"><path d="M128 84c5-17 16-28 35-35" fill="none" stroke="#6d4b22" stroke-width="6" stroke-linecap="round"/><path d="M129 88c18-2 33-13 38-29-18-1-31 8-38 24-7-16-20-25-38-24 5 16 20 27 38 29Z" fill="url(#manga-accent)" stroke="#a8452d" stroke-width="4"/><circle cx="128" cy="149" r="54" fill="url(#manga-body)" stroke="#b2862b" stroke-width="6"/><ellipse cx="108" cy="125" rx="18" ry="30" transform="rotate(-18 108 125)" fill="url(#manga-shine)" opacity=".34"/></g>
</svg>