<svg xmlns="http://www.w3.org/2000/svg" viewBox="0 0 256 256" role="img" aria-label="Melancia">
<defs>
  <linearGradient id="melancia-body" x1="0" y1="0" x2="1" y2="1">
    <stop offset="0" stop-color="#53b879"/>
    <stop offset="0.58" stop-color="#2da85b"/>
    <stop offset="1" stop-color="#207942"/>
  </linearGradient>
  <linearGradient id="melancia-accent" x1="0" y1="0" x2="1" y2="1">
    <stop offset="0" stop-color="#f2707f"/>
    <stop offset="1" stop-color="#ef5567"/>
  </linearGradient>
  <radialGradient id="melancia-shine" cx="32%" cy="26%" r="58%">
    <stop offset="0" stop-color="#fff" stop-opacity="0.9"/>
    <stop offset="0.5" stop-color="#fff" stop-opacity="0.25"/>
    <stop offset="1" stop-color="#fff" stop-opacity="0"/>
  </radialGradient>
  <filter id="melancia-shadow" x="-30%" y="-30%" width="160%" height="180%">
    <feDropShadow dx="0" dy="8" stdDeviation="6" flood-color="#09120d" flood-opacity="0.28"/>
  </filter>
</defs>
<ellipse cx="128" cy="223" rx="42" ry="10" fill="rgba(0,0,0,.14)"/>
<g filter="url(#melancia-shadow)">
    <path d="M110 84C81 79 65 63 72 43c22 2 36 14 45 38-2 2-4 3-7 3Z" fill="url(#melancia-accent)" stroke="#ac3d4a" stroke-width="4" stroke-linejoin="round"/>
    <path d="M146 84c29-5 45-21 38-41-22 2-36 14-45 38 2 2 4 3 7 3Z" fill="#f37a88" stroke="#ac3d4a" stroke-width="4" stroke-linejoin="round"/>
    <path d="M128 90c-15-18-29-32-34-46M128 90c15-18 29-32 34-46" fill="none" stroke="#ac3d4a" stroke-width="3" stroke-linecap="round" opacity=".5"/>
    <circle cx="128" cy="150" r="54" fill="url(#melancia-body)" stroke="#1f7640" stroke-width="6"/><path d="M99 99c-14 28-14 66 0 102M128 94c-7 35-7 75 0 111M157 99c14 28 14 66 0 102" fill="none" stroke="#173d27" stroke-width="4" opacity=".38" stroke-linecap="round"/><path d="M92 156c22 14 52 18 74 0" fill="none" stroke="#ef5567" stroke-width="10" opacity=".75" stroke-linecap="round"/></g>
</svg>