<svg xmlns="http://www.w3.org/2000/svg" viewBox="0 0 512 512" role="img" aria-label="Tomate">
  <defs>
    <linearGradient id="tomate-body" x1="0" x2="1" y1="0" y2="1">
      <stop offset="0" stop-color="#f06464"/>
      <stop offset="0.55" stop-color="#ed3939"/>
      <stop offset="1" stop-color="#aa2929"/>
    </linearGradient>
    <linearGradient id="tomate-accent" x1="0" x2="0.9" y1="0" y2="1">
      <stop offset="0" stop-color="#96e68a"/>
      <stop offset="1" stop-color="#7ce06d"/>
    </linearGradient>
    <radialGradient id="tomate-shine" cx="30%" cy="22%" r="70%">
      <stop offset="0" stop-color="#ffffff" stop-opacity="0.92"/>
      <stop offset="0.42" stop-color="#ffffff" stop-opacity="0.24"/>
      <stop offset="1" stop-color="#ffffff" stop-opacity="0"/>
    </radialGradient>
    <radialGradient id="tomate-glow" cx="50%" cy="50%" r="55%">
      <stop offset="0" stop-color="#f05c5c" stop-opacity="0.48"/>
      <stop offset="1" stop-color="#89e37b" stop-opacity="0"/>
    </radialGradient>
    <filter id="tomate-blur" x="-40%" y="-40%" width="180%" height="180%">
      <feGaussianBlur stdDeviation="18"/>
    </filter>
    <filter id="tomate-shadow" x="-25%" y="-25%" width="160%" height="170%">
      <feDropShadow dx="0" dy="16" stdDeviation="12" flood-color="#05150d" flood-opacity="0.32"/>
    </filter>
  </defs>
  <ellipse cx="256" cy="272" rx="168" ry="152" fill="url(#tomate-glow)" filter="url(#tomate-blur)"/>
  <ellipse cx="256" cy="438" rx="116" ry="26" fill="rgba(0,0,0,.18)"/>
  
  <g filter="url(#tomate-shadow)">
    <path d="M245 210c-82-18-131-76-109-134 70 3 115 38 135 114-7 11-15 16-26 20Z" fill="url(#tomate-accent)" stroke="#59a14e" stroke-width="14" stroke-linejoin="round"/>
    <path d="M272 213c82-14 131-71 115-130-72 2-120 35-142 110 8 11 16 17 27 20Z" fill="#9be790" stroke="#59a14e" stroke-width="14" stroke-linejoin="round"/>
    <path d="M256 222c-44-57-85-102-99-148M261 223c41-61 77-106 97-146" fill="none" stroke="#59a14e" stroke-width="10" stroke-linecap="round" opacity=".55"/>
  </g>
  <g filter="url(#tomate-shadow)">
    <circle cx="256" cy="334" r="108" fill="url(#tomate-body)" stroke="#aa2929" stroke-width="16"/>
    <path d="M256 200v44" stroke="#5c8436" stroke-width="14" stroke-linecap="round"/>
    <path d="M256 229c-18 5-34 18-45 37 19-6 32-7 45 0 12-7 26-6 45 0-11-20-26-32-45-37Z" fill="url(#tomate-accent)" stroke="#59a14e" stroke-width="10" stroke-linejoin="round"/>
    <ellipse cx="220" cy="287" rx="40" ry="62" transform="rotate(-18 220 287)" fill="url(#tomate-shine)" opacity=".33"/>
  </g>
</svg>